<svg xmlns:x="&amp;ns_extend;" xmlns:i="&amp;ns_ai;" xmlns:graph="&amp;ns_graphs;"
            xmlns="http://www.w3.org/2000/svg" xmlns:xlink="http://www.w3.org/1999/xlink" version="1.1" id="Layer_1"
            width="150px" height="150px" x="0px" y="0px" viewBox="0 0 221.4 315"
            style="enable-background:new 0 0 221.4 315;" xml:space="preserve">
            <style type="text/css">
               .st0 {
                  fill: url(#SVGID_1_);
               }

               .st1 {
                  fill: url(#SVGID_00000102531562214310979910000017023182387208440229_);
               }

               .st2 {
                  opacity: 0.25;
                  fill: url(#SVGID_00000140712950995050969120000006157858877192986806_);
                  enable-background: new;
               }
            </style>
            <metadata>
               <sfw>
                  <slices />
                  <sliceSourceBounds bottomLeftOrigin="true" height="315" width="221.4" x="0" y="0" />
               </sfw>
            </metadata>
            <g id="color_index_g">
               <linearGradient id="SVGID_1_" gradientUnits="userSpaceOnUse" x1="235.1779" y1="-187.1246" x2="-63.9094"
                  y2="230.0213" gradientTransform="matrix(1 0 0 1 0 63)">
                  <stop offset="0" style="stop-color: rgb(31, 252, 253);" />
                  <stop offset="0.703" style="stop-color: rgb(192, 10, 192);" />
               </linearGradient>
               <linearGradient id="SVGID_00000163782894333547132970000013323795915914156478_"
                  gradientUnits="userSpaceOnUse" x1="194.3087" y1="31.3457" x2="-84.6165" y2="260.3575"
                  gradientTransform="matrix(1 0 0 1 0 63)">
                  <stop offset="0" style="stop-color: rgb(31, 252, 253);" />
                  <stop offset="0.703" style="stop-color: rgb(192, 10, 192);" />
               </linearGradient>
               <path class="st0"
                  d="M221.4,33.2c0,18.4-14.9,33.2-33.2,33.2H66.5v57.8h43c18.5-0.2,33.8,15.7,33.2,33.8&#9;&#9;c-0.2,17.8-15,32.8-33.2,32.7H66.5v91c0,18.4-14.9,33.3-33.3,33.3l0,0C15.4,315.3-0.3,299.7,0,281.9V33.2C0,14.9,14.9,0,33.3,0&#9;&#9;h154.9C206.5,0,221.4,14.9,221.4,33.2z" />
               <path style="fill:url(#SVGID_00000163782894333547132970000013323795915914156478_);"
                  d="M142.8,158.1c-0.2,17.8-15,32.8-33.2,32.7&#9;&#9;h-43v91c0,18.4-14.9,33.3-33.3,33.3l0,0C15.4,315.3-0.3,299.7,0,281.9V171.7c11.7-49.3,66.5-47.4,66.5-47.4h43.1&#9;&#9;C128.1,124.1,143.3,140,142.8,158.1z" />
            </g>
            <g>
               <linearGradient id="SVGID_00000084494982663936822920000000869662482691861399_"
                  gradientUnits="userSpaceOnUse" x1="72.9638" y1="36.6253" x2="10.704" y2="94.269"
                  gradientTransform="matrix(1 0 0 1 0 63)">
                  <stop offset="7.366000e-02" style="stop-color:#000000" />
                  <stop offset="0.8635" style="stop-color:#000000;stop-opacity:0" />
               </linearGradient>
               <path
                  style="opacity:0.25;fill:url(#SVGID_00000084494982663936822920000000869662482691861399_);enable-background:new    ;"
                  d="&#9;&#9;M66.5,124.2c-1,0-54.9-1.5-66.5,47.5v-19.4c17.6-33.3,65.6-32,66.5-31.9V124.2z" />
            </g>
         </svg>
         <svg xmlns:x="&amp;ns_extend;" xmlns:i="&amp;ns_ai;" xmlns:graph="&amp;ns_graphs;"
            xmlns="http://www.w3.org/2000/svg" xmlns:xlink="http://www.w3.org/1999/xlink" version="1.1" id="Layer_1"
            width="150px" height="150px" x="0px" y="0px" viewBox="0 0 215.455658 315"
            style="enable-background:new 0 0 215.455658 315;" xml:space="preserve">
            <style type="text/css">
               .st0 {
                  fill: url(#SVGID_1_);
               }

               .st1 {
                  fill: url(#SVGID_00000158711019959081776950000006359876087871243142_);
               }

               .st2 {
                  fill: url(#SVGID_00000030459875634897132880000010810419721574937251_);
               }

               .st3 {
                  fill: url(#SVGID_00000033340710023903474030000004532729771829100439_);
               }

               .st4 {
                  fill: url(#SVGID_00000183956215595646493350000006096133685388203439_);
               }

               .st5 {
                  fill: url(#SVGID_00000072972150066997081890000006235026562590860161_);
               }

               .st6 {
                  fill: url(#SVGID_00000126300903730077598070000004161905221782644901_);
               }

               .st7 {
                  fill: url(#SVGID_00000036209602317241653480000004447323273285895073_);
               }

               .st8 {
                  fill: url(#SVGID_00000135656654346701496470000001226658238272552102_);
               }
            </style>
            <metadata>
               <sfw>
                  <slices />
                  <sliceSourceBounds bottomLeftOrigin="true" height="315" width="215.455658" x="0" y="0" />
               </sfw>
            </metadata>
            <g id="color_index_g">
               <linearGradient id="SVGID_1_" gradientUnits="userSpaceOnUse" x1="225.715271" y1="-178.4798584"
                  x2="228.8184052" y2="10.5388613" gradientTransform="matrix(0 1 1 0 220.0040894 -195.0168152)">
                  <stop offset="0" style="stop-color: rgb(192, 10, 192);" />
                  <stop offset="1" style="stop-color: rgb(31, 252, 253);" />
               </linearGradient>
               <linearGradient id="SVGID_00000147939593073166083280000007025473901323159724_"
                  gradientUnits="userSpaceOnUse" x1="351.5193176" y1="-182.2872314" x2="354.6137695" y2="-18.5403271"
                  gradientTransform="matrix(0 1 1 0 220.0040894 -195.0168152)">
                  <stop offset="0" style="stop-color: rgb(192, 10, 192);" />
                  <stop offset="1" style="stop-color: rgb(31, 252, 253);" />
               </linearGradient>
               <linearGradient id="SVGID_00000150815029091189603330000001858544767498774656_"
                  gradientUnits="userSpaceOnUse" x1="31.0458355" y1="-7.5426593" x2="32.4851303" y2="327.0922241"
                  gradientTransform="matrix(1 0 0 -1 0 316)">
                  <stop offset="0" style="stop-color: rgb(192, 10, 192);" />
                  <stop offset="1" style="stop-color: rgb(31, 252, 253);" />
               </linearGradient>
               <path class="st0"
                  d="M0.0011047,31.7853699v-0.0000629c0-17.5405464,14.2194233-31.7599697,31.7599697-31.7599697h151.9346008&#9;&#9;c17.5405426,0,31.7599792,14.2194223,31.7599792,31.7599697v0.0000629c0,17.5405464-14.2194366,31.7599678-31.7599792,31.7599678&#9;&#9;H31.7610741C14.2205276,63.5453377,0.0011047,49.3259163,0.0011047,31.7853699z" />
               <path style="fill:url(#SVGID_00000147939593073166083280000007025473901323159724_);"
                  d="M0.0011047,157.4989777v-0.000061&#9;&#9;c0-17.5405426,14.2194233-31.759964,31.7599697-31.759964h117.3692474c17.5405426,0,31.759964,14.2194214,31.759964,31.759964&#9;&#9;v0.000061c0,17.5405579-14.2194214,31.7599792-31.759964,31.7599792H31.7610741&#9;&#9;C14.2205276,189.2589569,0.0011047,175.0395355,0.0011047,157.4989777z" />
               <path style="fill:url(#SVGID_00000150815029091189603330000001858544767498774656_);"
                  d="M31.7600327,314.9989014h-0.0000629&#9;&#9;C14.2194223,314.9989014,0,300.77948,0,283.2389221V31.7599697C0,14.2194223,14.2194223,0,31.7599697,0h0.0000629&#9;&#9;c17.5405464,0,31.7599716,14.2194223,31.7599716,31.7599697v251.4789581&#9;&#9;C63.5200043,300.77948,49.3005791,314.9989014,31.7600327,314.9989014z" />
            </g>
            <g>
               <linearGradient id="SVGID_00000054959266166986372040000009167226188577065641_"
                  gradientUnits="userSpaceOnUse" x1="16.7473965" y1="355.8799133" x2="15.8858786" y2="144.0382996"
                  gradientTransform="matrix(1 0 0 -1 0 316)">
                  <stop offset="0" style="stop-color:#000000;stop-opacity:0.3" />
                  <stop offset="1" style="stop-color:#000000;stop-opacity:0" />
               </linearGradient>
               <linearGradient id="SVGID_00000055686682668994657960000003777780395711244170_"
                  gradientUnits="userSpaceOnUse" x1="3004.6188965" y1="-1521.5098877" x2="3003.7573242"
                  y2="-1733.3515625" gradientTransform="matrix(-1 0 0 1 3051.2890625 1901.8010254)">
                  <stop offset="0" style="stop-color:#000000;stop-opacity:0.3" />
                  <stop offset="1" style="stop-color:#000000;stop-opacity:0" />
               </linearGradient>
               <linearGradient id="SVGID_00000177466438479216227670000000738756050165236150_"
                  gradientUnits="userSpaceOnUse" x1="34.8808556" y1="141.6750793" x2="153.9381714" y2="143.247879"
                  gradientTransform="matrix(1 0 0 -1 0 316)">
                  <stop offset="0" style="stop-color:#000000;stop-opacity:0.3" />
                  <stop offset="1" style="stop-color:#000000;stop-opacity:0" />
               </linearGradient>
               <linearGradient id="SVGID_00000178885692484139664400000013756153215542185130_"
                  gradientUnits="userSpaceOnUse" x1="197.3169098" y1="171.9293671" x2="76.6476822" y2="175.1882172"
                  gradientTransform="matrix(1 0 0 -1 0 316)">
                  <stop offset="0" style="stop-color:#000000;stop-opacity:0.3" />
                  <stop offset="1" style="stop-color:#000000;stop-opacity:0" />
               </linearGradient>
               <linearGradient id="SVGID_00000017488662013322410740000000710586011135973053_"
                  gradientUnits="userSpaceOnUse" x1="218.2966919" y1="297.5429077" x2="95.5536957" y2="300.8580627"
                  gradientTransform="matrix(1 0 0 -1 0 316)">
                  <stop offset="0" style="stop-color:#000000;stop-opacity:0.3" />
                  <stop offset="1" style="stop-color:#000000;stop-opacity:0" />
               </linearGradient>
               <linearGradient id="SVGID_00000090982103098751495000000017699932208736991162_"
                  gradientUnits="userSpaceOnUse" x1="42.1865845" y1="271.2923889" x2="172.193985" y2="267.3394775"
                  gradientTransform="matrix(1 0 0 -1 0 316)">
                  <stop offset="0" style="stop-color:#000000;stop-opacity:0.3" />
                  <stop offset="1" style="stop-color:#000000;stop-opacity:0" />
               </linearGradient>
               <path style="fill:url(#SVGID_00000054959266166986372040000009167226188577065641_);"
                  d="M31.7604961,0.0014339V315&#9;&#9;C14.2210417,315,0,300.7789612,0,283.2394714V31.7583447C0,14.2188015,14.2210417,0.0014339,31.7604961,0.0014339z" />
               <path style="fill:url(#SVGID_00000055686682668994657960000003777780395711244170_);"
                  d="M31.7604961,315V0.0014339&#9;&#9;c17.5394535,0,31.7604961,14.2210407,31.7604961,31.76054V283.243103C63.5209923,300.7826233,49.2999496,315,31.7604961,315z" />
               <path style="fill:url(#SVGID_00000177466438479216227670000000738756050165236150_);"
                  d="M63.521019,157.4994507v31.760498&#9;&#9;h85.6073074c17.5394897,0,31.7605591-14.2210693,31.7605591-31.760498H63.521019z" />
               <path style="fill:url(#SVGID_00000178885692484139664400000013756153215542185130_);"
                  d="M63.521019,157.4994507h117.3678665&#9;&#9;c0-17.5394897-14.2174072-31.760498-31.756958-31.760498H63.521019V157.4994507z" />
               <path style="fill:url(#SVGID_00000017488662013322410740000000710586011135973053_);"
                  d="M63.521019,31.7619648v0.0238647&#9;&#9;h151.9332275c0-17.5394897-14.2174072-31.760498-31.756958-31.760498H32.70681&#9;&#9;C49.807457,0.5271627,63.521019,14.5398579,63.521019,31.7619648z" />
               <path style="fill:url(#SVGID_00000090982103098751495000000017699932208736991162_);"
                  d="M63.521019,31.7858295v31.7605&#9;&#9;h120.1726761c17.5394897,0,31.7605591-14.2210693,31.7605591-31.7605H63.521019z" />
            </g>
         </svg>
         <svg xmlns:x="&amp;ns_extend;" xmlns:i="&amp;ns_ai;" xmlns:graph="&amp;ns_graphs;"
            xmlns="http://www.w3.org/2000/svg" xmlns:xlink="http://www.w3.org/1999/xlink" version="1.1" id="Layer_1"
            width="150px" height="150px" x="0px" y="0px" viewBox="0 0 221.4 315"
            style="enable-background:new 0 0 221.4 315;" xml:space="preserve">
            <style type="text/css">
               .st0 {
                  fill: url(#SVGID_1_);
               }

               .st1 {
                  fill: url(#SVGID_00000102531562214310979910000017023182387208440229_);
               }

               .st2 {
                  opacity: 0.25;
                  fill: url(#SVGID_00000140712950995050969120000006157858877192986806_);
                  enable-background: new;
               }
            </style>
            <metadata>
               <sfw>
                  <slices />
                  <sliceSourceBounds bottomLeftOrigin="true" height="315" width="221.4" x="0" y="0" />
               </sfw>
            </metadata>
            <g id="color_index_g">
               <linearGradient id="SVGID_1_" gradientUnits="userSpaceOnUse" x1="235.1779" y1="-187.1246" x2="-63.9094"
                  y2="230.0213" gradientTransform="matrix(1 0 0 1 0 63)">
                  <stop offset="0" style="stop-color: rgb(253, 41, 31);" />
                  <stop offset="0.703" style="stop-color: rgb(192, 10, 192);" />
               </linearGradient>
               <linearGradient id="SVGID_00000163782894333547132970000013323795915914156478_"
                  gradientUnits="userSpaceOnUse" x1="194.3087" y1="31.3457" x2="-84.6165" y2="260.3575"
                  gradientTransform="matrix(1 0 0 1 0 63)">
                  <stop offset="0" style="stop-color: rgb(253, 41, 31);" />
                  <stop offset="0.703" style="stop-color: rgb(192, 10, 192);" />
               </linearGradient>
               <path class="st0"
                  d="M221.4,33.2c0,18.4-14.9,33.2-33.2,33.2H66.5v57.8h43c18.5-0.2,33.8,15.7,33.2,33.8&#9;&#9;c-0.2,17.8-15,32.8-33.2,32.7H66.5v91c0,18.4-14.9,33.3-33.3,33.3l0,0C15.4,315.3-0.3,299.7,0,281.9V33.2C0,14.9,14.9,0,33.3,0&#9;&#9;h154.9C206.5,0,221.4,14.9,221.4,33.2z" />
               <path style="fill:url(#SVGID_00000163782894333547132970000013323795915914156478_);"
                  d="M142.8,158.1c-0.2,17.8-15,32.8-33.2,32.7&#9;&#9;h-43v91c0,18.4-14.9,33.3-33.3,33.3l0,0C15.4,315.3-0.3,299.7,0,281.9V171.7c11.7-49.3,66.5-47.4,66.5-47.4h43.1&#9;&#9;C128.1,124.1,143.3,140,142.8,158.1z" />
            </g>
            <g>
               <linearGradient id="SVGID_00000084494982663936822920000000869662482691861399_"
                  gradientUnits="userSpaceOnUse" x1="72.9638" y1="36.6253" x2="10.704" y2="94.269"
                  gradientTransform="matrix(1 0 0 1 0 63)">
                  <stop offset="7.366000e-02" style="stop-color:#000000" />
                  <stop offset="0.8635" style="stop-color:#000000;stop-opacity:0" />
               </linearGradient>
               <path
                  style="opacity:0.25;fill:url(#SVGID_00000084494982663936822920000000869662482691861399_);enable-background:new    ;"
                  d="&#9;&#9;M66.5,124.2c-1,0-54.9-1.5-66.5,47.5v-19.4c17.6-33.3,65.6-32,66.5-31.9V124.2z" />
            </g>
         </svg>