<svg xmlns="http://www.w3.org/2000/svg" width="80%" height="100%" x="0px" y="0px" viewBox="0 0 221.4 315"
            fill="url(#SVGID_1_)">
            <g>
               <linearGradient id="SVGID_1_" gradientUnits="userSpaceOnUse" x1="235.1779" y1="-187.1246" x2="-63.9094"
                  y2="230.0213" gradientTransform="matrix(1 0 0 1 0 63)">
                  <stop offset="0" style="stop-color: rgb(31, 252, 253);" />
                  <stop offset="0.703" style="stop-color: rgb(192, 10, 192);" />
               </linearGradient>
               <linearGradient id="SVGID_00000163782894333547132970000013323795915914156478_"
                  gradientUnits="userSpaceOnUse" x1="194.3087" y1="31.3457" x2="-84.6165" y2="260.3575"
                  gradientTransform="matrix(1 0 0 1 0 63)">
                  <stop offset="0" style="stop-color: rgb(31, 252, 253);" />
                  <stop offset="0.703" style="stop-color: rgb(192, 10, 192);" />
               </linearGradient>
               <path class="st0"
                  d="M221.4,33.2c0,18.4-14.9,33.2-33.2,33.2H66.5v57.8h43c18.5-0.2,33.8,15.7,33.2,33.8&#9;&#9;c-0.2,17.8-15,32.8-33.2,32.7H66.5v91c0,18.4-14.9,33.3-33.3,33.3l0,0C15.4,315.3-0.3,299.7,0,281.9V33.2C0,14.9,14.9,0,33.3,0&#9;&#9;h154.9C206.5,0,221.4,14.9,221.4,33.2z" />
               <path style="fill:url(#SVGID_00000163782894333547132970000013323795915914156478_);"
                  d="M142.8,158.1c-0.2,17.8-15,32.8-33.2,32.7&#9;&#9;h-43v91c0,18.4-14.9,33.3-33.3,33.3l0,0C15.4,315.3-0.3,299.7,0,281.9V171.7c11.7-49.3,66.5-47.4,66.5-47.4h43.1&#9;&#9;C128.1,124.1,143.3,140,142.8,158.1z" />
            </g>
         </svg>